<svg xmlns="http://www.w3.org/2000/svg" width="1264" height="319" fill="none" viewBox="0 0 1264 319"><line x2="1264" y1="283.5" y2="283.5" stroke="url(#paint0_linear_171_208)"/><path fill="#FF3E1E" d="M47.584 314.16C46.688 314.16 45.968 313.92 45.424 313.44C44.88 312.949 44.608 312.224 44.608 311.264H46.144C46.144 311.509 46.1813 311.744 46.256 311.968C46.3413 312.192 46.4853 312.379 46.688 312.528C46.8907 312.677 47.1733 312.752 47.536 312.752C48.0053 312.752 48.3467 312.619 48.56 312.352C48.784 312.075 48.896 311.584 48.896 310.88V306.256H47.072V304.992H50.528V310.624C50.528 311.349 50.448 311.979 50.288 312.512C50.1387 313.045 49.8507 313.456 49.424 313.744C48.9973 314.021 48.384 314.16 47.584 314.16ZM56.2836 314.224C55.0036 314.224 54.0276 313.872 53.3556 313.168C52.6943 312.453 52.3636 311.451 52.3636 310.16V304.992H54.1076V310.144C54.1076 310.805 54.2143 311.317 54.4276 311.68C54.641 312.043 54.913 312.299 55.2436 312.448C55.5743 312.597 55.921 312.672 56.2836 312.672C56.689 312.672 57.057 312.603 57.3876 312.464C57.7183 312.315 57.9796 312.059 58.1716 311.696C58.3743 311.333 58.4756 310.816 58.4756 310.144V304.992H60.2036V310.16C60.2036 311.472 59.873 312.48 59.2116 313.184C58.561 313.877 57.585 314.224 56.2836 314.224ZM62.0393 314V304.992H63.6713V312.608H68.1193V314H62.0393ZM70.9079 314V310.816L67.8359 304.992H69.6599L71.7559 309.392L73.8199 304.992H75.6439L72.5239 310.8V314H70.9079Z"/><path fill="#FF3E1E" d="M236.304 314L239.184 304.992H241.856L244.816 314H243.072L242.304 311.456H238.8L238.032 314H236.304ZM240.544 305.68L239.184 310.192H241.92L240.544 305.68ZM249.831 314.224C248.551 314.224 247.575 313.872 246.903 313.168C246.241 312.453 245.911 311.451 245.911 310.16V304.992H247.655V310.144C247.655 310.805 247.761 311.317 247.975 311.68C248.188 312.043 248.46 312.299 248.791 312.448C249.121 312.597 249.468 312.672 249.831 312.672C250.236 312.672 250.604 312.603 250.935 312.464C251.265 312.315 251.527 312.059 251.719 311.696C251.921 311.333 252.023 310.816 252.023 310.144V304.992H253.751V310.16C253.751 311.472 253.42 312.48 252.759 313.184C252.108 313.877 251.132 314.224 249.831 314.224ZM259.218 314.176C258.343 314.176 257.575 314 256.914 313.648C256.263 313.296 255.762 312.779 255.41 312.096C255.058 311.403 254.893 310.555 254.914 309.552C254.925 308.539 255.122 307.68 255.506 306.976C255.901 306.272 256.439 305.739 257.122 305.376C257.805 305.013 258.594 304.832 259.49 304.832C260.717 304.832 261.666 305.099 262.338 305.632C263.01 306.165 263.458 306.939 263.682 307.952L262.114 308.176C261.954 307.504 261.623 307.035 261.122 306.768C260.631 306.501 260.087 306.368 259.49 306.368C258.466 306.368 257.714 306.645 257.234 307.2C256.765 307.755 256.525 308.496 256.514 309.424C256.514 310.448 256.786 311.237 257.33 311.792C257.874 312.336 258.653 312.608 259.666 312.608C260.285 312.608 260.845 312.464 261.346 312.176C261.847 311.877 262.173 311.403 262.322 310.752H260.338V309.552H263.858V314H262.754L262.386 312.432H262.354C262.247 312.699 262.061 312.965 261.794 313.232C261.538 313.499 261.197 313.723 260.77 313.904C260.343 314.085 259.826 314.176 259.218 314.176ZM269.315 314.224C268.035 314.224 267.059 313.872 266.387 313.168C265.726 312.453 265.395 311.451 265.395 310.16V304.992H267.139V310.144C267.139 310.805 267.246 311.317 267.459 311.68C267.672 312.043 267.944 312.299 268.275 312.448C268.606 312.597 268.952 312.672 269.315 312.672C269.72 312.672 270.088 312.603 270.419 312.464C270.75 312.315 271.011 312.059 271.203 311.696C271.406 311.333 271.507 310.816 271.507 310.144V304.992H273.235V310.16C273.235 311.472 272.904 312.48 272.243 313.184C271.592 313.877 270.616 314.224 269.315 314.224ZM278.479 314.176C277.988 314.176 277.503 314.117 277.023 314C276.553 313.883 276.127 313.701 275.743 313.456C275.359 313.211 275.055 312.891 274.831 312.496C274.607 312.091 274.489 311.605 274.479 311.04H276.127C276.127 311.093 276.148 311.211 276.191 311.392C276.233 311.563 276.329 311.749 276.479 311.952C276.639 312.155 276.884 312.331 277.215 312.48C277.556 312.629 278.015 312.704 278.591 312.704C279.22 312.704 279.684 312.587 279.983 312.352C280.292 312.117 280.447 311.867 280.447 311.6C280.447 311.301 280.34 311.067 280.127 310.896C279.924 310.715 279.647 310.571 279.295 310.464C278.953 310.347 278.575 310.24 278.159 310.144C277.753 310.048 277.343 309.941 276.927 309.824C276.521 309.696 276.148 309.531 275.807 309.328C275.476 309.115 275.215 308.843 275.023 308.512C274.831 308.181 274.745 307.76 274.767 307.248C274.82 306.491 275.183 305.899 275.855 305.472C276.527 305.045 277.417 304.832 278.527 304.832C279.167 304.832 279.759 304.949 280.303 305.184C280.857 305.408 281.3 305.749 281.631 306.208C281.972 306.656 282.142 307.232 282.142 307.936H280.559C280.559 307.605 280.484 307.339 280.335 307.136C280.185 306.923 279.993 306.763 279.759 306.656C279.535 306.539 279.295 306.464 279.039 306.432C278.783 306.389 278.553 306.368 278.351 306.368C277.817 306.368 277.375 306.459 277.023 306.64C276.681 306.821 276.511 307.088 276.511 307.44C276.5 307.739 276.601 307.979 276.815 308.16C277.028 308.341 277.311 308.485 277.663 308.592C278.015 308.699 278.399 308.795 278.815 308.88C279.231 308.965 279.647 309.072 280.063 309.2C280.479 309.317 280.857 309.477 281.199 309.68C281.54 309.872 281.807 310.139 281.999 310.48C282.191 310.811 282.271 311.243 282.239 311.776C282.196 312.533 281.828 313.125 281.135 313.552C280.441 313.968 279.556 314.176 278.479 314.176ZM283.098 306.4V304.992H290.058V306.4H287.386V314H285.754V306.4H283.098Z"/><path fill="#FF3E1E" d="M455.416 314.176C454.925 314.176 454.44 314.117 453.96 314C453.491 313.883 453.064 313.701 452.68 313.456C452.296 313.211 451.992 312.891 451.768 312.496C451.544 312.091 451.427 311.605 451.416 311.04H453.064C453.064 311.093 453.085 311.211 453.128 311.392C453.171 311.563 453.267 311.749 453.416 311.952C453.576 312.155 453.821 312.331 454.152 312.48C454.493 312.629 454.952 312.704 455.528 312.704C456.157 312.704 456.621 312.587 456.92 312.352C457.229 312.117 457.384 311.867 457.384 311.6C457.384 311.301 457.277 311.067 457.064 310.896C456.861 310.715 456.584 310.571 456.232 310.464C455.891 310.347 455.512 310.24 455.096 310.144C454.691 310.048 454.28 309.941 453.864 309.824C453.459 309.696 453.085 309.531 452.744 309.328C452.413 309.115 452.152 308.843 451.96 308.512C451.768 308.181 451.683 307.76 451.704 307.248C451.757 306.491 452.12 305.899 452.792 305.472C453.464 305.045 454.355 304.832 455.464 304.832C456.104 304.832 456.696 304.949 457.24 305.184C457.795 305.408 458.237 305.749 458.568 306.208C458.909 306.656 459.08 307.232 459.08 307.936H457.496C457.496 307.605 457.421 307.339 457.272 307.136C457.123 306.923 456.931 306.763 456.696 306.656C456.472 306.539 456.232 306.464 455.976 306.432C455.72 306.389 455.491 306.368 455.288 306.368C454.755 306.368 454.312 306.459 453.96 306.64C453.619 306.821 453.448 307.088 453.448 307.44C453.437 307.739 453.539 307.979 453.752 308.16C453.965 308.341 454.248 308.485 454.6 308.592C454.952 308.699 455.336 308.795 455.752 308.88C456.168 308.965 456.584 309.072 457 309.2C457.416 309.317 457.795 309.477 458.136 309.68C458.477 309.872 458.744 310.139 458.936 310.48C459.128 310.811 459.208 311.243 459.176 311.776C459.133 312.533 458.765 313.125 458.072 313.552C457.379 313.968 456.493 314.176 455.416 314.176ZM462.339 312.688H467.315V314H460.723V304.992H467.155V306.4H462.339V308.768H466.035V310.112H462.339V312.688ZM470.435 314H468.803V304.992H472.419C473.421 304.992 474.2 305.243 474.755 305.744C475.309 306.245 475.587 307.003 475.587 308.016C475.587 308.901 475.299 309.595 474.723 310.096C474.157 310.597 473.389 310.848 472.419 310.848H470.435V314ZM472.195 306.32H470.435V309.648H472.195C472.771 309.648 473.235 309.509 473.587 309.232C473.939 308.955 474.115 308.539 474.115 307.984C474.115 307.419 473.939 307.003 473.587 306.736C473.245 306.459 472.781 306.32 472.195 306.32ZM476.019 306.4V304.992H482.979V306.4H480.307V314H478.675V306.4H476.019ZM485.964 312.688H490.94V314H484.348V304.992H490.78V306.4H485.964V308.768H489.66V310.112H485.964V312.688ZM492.444 314V304.992H495.292L497.404 313.296H497.436L499.532 304.992H502.364V314H500.668L500.78 305.728H500.764L498.604 314H496.204L494.076 305.728H494.044L494.14 314H492.444ZM504.146 314V304.992H507.714C508.044 304.992 508.407 305.013 508.802 305.056C509.207 305.099 509.596 305.195 509.97 305.344C510.343 305.493 510.647 305.728 510.882 306.048C511.127 306.368 511.25 306.811 511.25 307.376C511.25 307.717 511.18 308.032 511.042 308.32C510.914 308.608 510.668 308.848 510.306 309.04C509.954 309.221 509.447 309.328 508.786 309.36V309.408C509.554 309.429 510.146 309.541 510.562 309.744C510.978 309.936 511.266 310.192 511.426 310.512C511.586 310.832 511.666 311.189 511.666 311.584C511.666 312.16 511.538 312.613 511.282 312.944C511.026 313.264 510.695 313.504 510.29 313.664C509.884 313.813 509.458 313.909 509.01 313.952C508.572 313.984 508.167 314 507.794 314H504.146ZM505.746 308.736H507.522C507.895 308.736 508.242 308.715 508.562 308.672C508.892 308.629 509.154 308.528 509.346 308.368C509.538 308.197 509.634 307.925 509.634 307.552C509.634 307.157 509.532 306.875 509.33 306.704C509.138 306.533 508.882 306.427 508.562 306.384C508.242 306.341 507.895 306.32 507.522 306.32H505.746V308.736ZM505.762 312.688H507.666C508.082 312.688 508.466 312.661 508.818 312.608C509.17 312.555 509.452 312.437 509.666 312.256C509.879 312.064 509.986 311.765 509.986 311.36C509.986 310.944 509.874 310.64 509.65 310.448C509.426 310.245 509.132 310.117 508.77 310.064C508.407 310.011 508.007 309.984 507.57 309.984H505.762V312.688ZM514.683 312.688H519.659V314H513.067V304.992H519.499V306.4H514.683V308.768H518.379V310.112H514.683V312.688ZM521.13 314V304.992H524.442C525.605 304.992 526.512 305.189 527.162 305.584C527.813 305.968 528.138 306.651 528.138 307.632C528.138 308.368 527.962 308.965 527.61 309.424C527.258 309.872 526.752 310.096 526.09 310.096C526.464 310.096 526.741 310.181 526.922 310.352C527.114 310.512 527.248 310.715 527.322 310.96C527.397 311.205 527.45 311.461 527.482 311.728C527.514 311.995 527.552 312.235 527.594 312.448C527.648 312.651 527.744 312.795 527.882 312.88C528.032 312.965 528.261 312.949 528.57 312.832V313.776C528.368 313.947 528.128 314.059 527.85 314.112C527.573 314.176 527.301 314.16 527.034 314.064C526.768 313.968 526.544 313.781 526.362 313.504C526.181 313.216 526.09 312.816 526.09 312.304C526.09 311.835 526.064 311.461 526.01 311.184C525.957 310.896 525.824 310.683 525.61 310.544C525.397 310.395 525.066 310.304 524.618 310.272C524.17 310.229 523.552 310.229 522.762 310.272V314H521.13ZM522.762 309.088H524.378C524.901 309.088 525.333 309.067 525.674 309.024C526.016 308.971 526.266 308.853 526.426 308.672C526.597 308.48 526.682 308.176 526.682 307.76C526.682 307.301 526.581 306.971 526.378 306.768C526.176 306.565 525.877 306.443 525.482 306.4C525.098 306.347 524.624 306.32 524.058 306.32H522.762V309.088Z"/><path fill="#FF3E1E" d="M694.768 314.224C693.317 314.224 692.208 313.803 691.44 312.96C690.672 312.107 690.288 310.96 690.288 309.52C690.288 308.571 690.453 307.749 690.784 307.056C691.115 306.352 691.611 305.808 692.272 305.424C692.944 305.029 693.776 304.832 694.768 304.832C696.24 304.832 697.355 305.259 698.112 306.112C698.869 306.955 699.248 308.091 699.248 309.52C699.248 310.448 699.077 311.269 698.736 311.984C698.395 312.688 697.893 313.237 697.232 313.632C696.571 314.027 695.749 314.224 694.768 314.224ZM694.752 312.656C695.712 312.656 696.432 312.357 696.912 311.76C697.403 311.163 697.648 310.416 697.648 309.52C697.648 308.912 697.541 308.373 697.328 307.904C697.115 307.424 696.795 307.051 696.368 306.784C695.941 306.507 695.403 306.368 694.752 306.368C693.813 306.368 693.099 306.656 692.608 307.232C692.117 307.808 691.872 308.571 691.872 309.52C691.872 310.107 691.973 310.64 692.176 311.12C692.389 311.589 692.709 311.963 693.136 312.24C693.563 312.517 694.101 312.656 694.752 312.656ZM704.879 314.16C704.036 314.16 703.273 313.989 702.591 313.648C701.908 313.296 701.364 312.779 700.959 312.096C700.564 311.413 700.367 310.56 700.367 309.536C700.377 308.533 700.58 307.68 700.975 306.976C701.369 306.272 701.908 305.739 702.591 305.376C703.273 305.013 704.052 304.832 704.927 304.832C705.759 304.832 706.468 304.981 707.055 305.28C707.641 305.579 708.111 305.984 708.463 306.496C708.825 307.008 709.06 307.584 709.167 308.224H707.487C707.412 307.755 707.236 307.387 706.959 307.12C706.692 306.843 706.377 306.651 706.015 306.544C705.652 306.427 705.289 306.368 704.927 306.368C703.977 306.368 703.247 306.635 702.735 307.168C702.233 307.701 701.983 308.453 701.983 309.424C701.983 310.459 702.228 311.253 702.719 311.808C703.22 312.363 703.945 312.64 704.895 312.64C705.289 312.64 705.673 312.581 706.047 312.464C706.42 312.336 706.74 312.133 707.007 311.856C707.273 311.568 707.444 311.184 707.519 310.704H709.215C709.097 311.365 708.857 311.957 708.495 312.48C708.143 312.992 707.663 313.403 707.055 313.712C706.457 314.011 705.732 314.16 704.879 314.16ZM709.848 306.4V304.992H716.808V306.4H714.136V314H712.504V306.4H709.848ZM721.893 314.224C720.442 314.224 719.333 313.803 718.565 312.96C717.797 312.107 717.413 310.96 717.413 309.52C717.413 308.571 717.578 307.749 717.909 307.056C718.24 306.352 718.736 305.808 719.397 305.424C720.069 305.029 720.901 304.832 721.893 304.832C723.365 304.832 724.48 305.259 725.237 306.112C725.994 306.955 726.373 308.091 726.373 309.52C726.373 310.448 726.202 311.269 725.861 311.984C725.52 312.688 725.018 313.237 724.357 313.632C723.696 314.027 722.874 314.224 721.893 314.224ZM721.877 312.656C722.837 312.656 723.557 312.357 724.037 311.76C724.528 311.163 724.773 310.416 724.773 309.52C724.773 308.912 724.666 308.373 724.453 307.904C724.24 307.424 723.92 307.051 723.493 306.784C723.066 306.507 722.528 306.368 721.877 306.368C720.938 306.368 720.224 306.656 719.733 307.232C719.242 307.808 718.997 308.571 718.997 309.52C718.997 310.107 719.098 310.64 719.301 311.12C719.514 311.589 719.834 311.963 720.261 312.24C720.688 312.517 721.226 312.656 721.877 312.656ZM727.802 314V304.992H731.37C731.701 304.992 732.063 305.013 732.458 305.056C732.863 305.099 733.253 305.195 733.626 305.344C733.999 305.493 734.303 305.728 734.538 306.048C734.783 306.368 734.906 306.811 734.906 307.376C734.906 307.717 734.837 308.032 734.698 308.32C734.57 308.608 734.325 308.848 733.962 309.04C733.61 309.221 733.103 309.328 732.442 309.36V309.408C733.21 309.429 733.802 309.541 734.218 309.744C734.634 309.936 734.922 310.192 735.082 310.512C735.242 310.832 735.322 311.189 735.322 311.584C735.322 312.16 735.194 312.613 734.938 312.944C734.682 313.264 734.351 313.504 733.946 313.664C733.541 313.813 733.114 313.909 732.666 313.952C732.229 313.984 731.823 314 731.45 314H727.802ZM729.402 308.736H731.178C731.551 308.736 731.898 308.715 732.218 308.672C732.549 308.629 732.81 308.528 733.002 308.368C733.194 308.197 733.29 307.925 733.29 307.552C733.29 307.157 733.189 306.875 732.986 306.704C732.794 306.533 732.538 306.427 732.218 306.384C731.898 306.341 731.551 306.32 731.178 306.32H729.402V308.736ZM729.418 312.688H731.322C731.738 312.688 732.122 312.661 732.474 312.608C732.826 312.555 733.109 312.437 733.322 312.256C733.535 312.064 733.642 311.765 733.642 311.36C733.642 310.944 733.53 310.64 733.306 310.448C733.082 310.245 732.789 310.117 732.426 310.064C732.063 310.011 731.663 309.984 731.226 309.984H729.418V312.688ZM738.339 312.688H743.315V314H736.723V304.992H743.155V306.4H738.339V308.768H742.035V310.112H738.339V312.688ZM744.787 314V304.992H748.099C749.261 304.992 750.168 305.189 750.819 305.584C751.469 305.968 751.795 306.651 751.795 307.632C751.795 308.368 751.619 308.965 751.267 309.424C750.915 309.872 750.408 310.096 749.747 310.096C750.12 310.096 750.397 310.181 750.579 310.352C750.771 310.512 750.904 310.715 750.979 310.96C751.053 311.205 751.107 311.461 751.139 311.728C751.171 311.995 751.208 312.235 751.251 312.448C751.304 312.651 751.4 312.795 751.539 312.88C751.688 312.965 751.917 312.949 752.227 312.832V313.776C752.024 313.947 751.784 314.059 751.507 314.112C751.229 314.176 750.957 314.16 750.691 314.064C750.424 313.968 750.2 313.781 750.019 313.504C749.837 313.216 749.747 312.816 749.747 312.304C749.747 311.835 749.72 311.461 749.667 311.184C749.613 310.896 749.48 310.683 749.267 310.544C749.053 310.395 748.723 310.304 748.275 310.272C747.827 310.229 747.208 310.229 746.419 310.272V314H744.787ZM746.419 309.088H748.035C748.557 309.088 748.989 309.067 749.331 309.024C749.672 308.971 749.923 308.853 750.083 308.672C750.253 308.48 750.339 308.176 750.339 307.76C750.339 307.301 750.237 306.971 750.035 306.768C749.832 306.565 749.533 306.443 749.139 306.4C748.755 306.347 748.28 306.32 747.715 306.32H746.419V309.088Z"/><path fill="#FF3E1E" d="M920.088 304.992H921.784V314H918.68L915.592 305.712H915.56V314H913.88V304.992H916.76L920.056 313.28H920.088V304.992ZM927.471 314.224C926.02 314.224 924.911 313.803 924.143 312.96C923.375 312.107 922.991 310.96 922.991 309.52C922.991 308.571 923.156 307.749 923.487 307.056C923.818 306.352 924.314 305.808 924.975 305.424C925.647 305.029 926.479 304.832 927.471 304.832C928.943 304.832 930.058 305.259 930.815 306.112C931.572 306.955 931.951 308.091 931.951 309.52C931.951 310.448 931.78 311.269 931.439 311.984C931.098 312.688 930.596 313.237 929.935 313.632C929.274 314.027 928.452 314.224 927.471 314.224ZM927.455 312.656C928.415 312.656 929.135 312.357 929.615 311.76C930.106 311.163 930.351 310.416 930.351 309.52C930.351 308.912 930.244 308.373 930.031 307.904C929.818 307.424 929.498 307.051 929.071 306.784C928.644 306.507 928.106 306.368 927.455 306.368C926.516 306.368 925.802 306.656 925.311 307.232C924.82 307.808 924.575 308.571 924.575 309.52C924.575 310.107 924.676 310.64 924.879 311.12C925.092 311.589 925.412 311.963 925.839 312.24C926.266 312.517 926.804 312.656 927.455 312.656ZM939.383 304.992H941.175L938.199 314H935.479L932.503 304.992H934.279L936.823 313.312L939.383 304.992ZM944.027 312.688H949.003V314H942.411V304.992H948.843V306.4H944.027V308.768H947.723V310.112H944.027V312.688ZM950.506 314V304.992H953.354L955.466 313.296H955.498L957.594 304.992H960.426V314H958.73L958.842 305.728H958.826L956.666 314H954.266L952.138 305.728H952.106L952.202 314H950.506ZM962.208 314V304.992H965.776C966.107 304.992 966.469 305.013 966.864 305.056C967.269 305.099 967.659 305.195 968.032 305.344C968.405 305.493 968.709 305.728 968.944 306.048C969.189 306.368 969.312 306.811 969.312 307.376C969.312 307.717 969.243 308.032 969.104 308.32C968.976 308.608 968.731 308.848 968.368 309.04C968.016 309.221 967.509 309.328 966.848 309.36V309.408C967.616 309.429 968.208 309.541 968.624 309.744C969.04 309.936 969.328 310.192 969.488 310.512C969.648 310.832 969.728 311.189 969.728 311.584C969.728 312.16 969.6 312.613 969.344 312.944C969.088 313.264 968.757 313.504 968.352 313.664C967.947 313.813 967.52 313.909 967.072 313.952C966.635 313.984 966.229 314 965.856 314H962.208ZM963.808 308.736H965.584C965.957 308.736 966.304 308.715 966.624 308.672C966.955 308.629 967.216 308.528 967.408 308.368C967.6 308.197 967.696 307.925 967.696 307.552C967.696 307.157 967.595 306.875 967.392 306.704C967.2 306.533 966.944 306.427 966.624 306.384C966.304 306.341 965.957 306.32 965.584 306.32H963.808V308.736ZM963.824 312.688H965.728C966.144 312.688 966.528 312.661 966.88 312.608C967.232 312.555 967.515 312.437 967.728 312.256C967.941 312.064 968.048 311.765 968.048 311.36C968.048 310.944 967.936 310.64 967.712 310.448C967.488 310.245 967.195 310.117 966.832 310.064C966.469 310.011 966.069 309.984 965.632 309.984H963.824V312.688ZM972.745 312.688H977.721V314H971.129V304.992H977.561V306.4H972.745V308.768H976.441V310.112H972.745V312.688ZM979.193 314V304.992H982.505C983.668 304.992 984.574 305.189 985.225 305.584C985.876 305.968 986.201 306.651 986.201 307.632C986.201 308.368 986.025 308.965 985.673 309.424C985.321 309.872 984.814 310.096 984.153 310.096C984.526 310.096 984.804 310.181 984.985 310.352C985.177 310.512 985.31 310.715 985.385 310.96C985.46 311.205 985.513 311.461 985.545 311.728C985.577 311.995 985.614 312.235 985.657 312.448C985.71 312.651 985.806 312.795 985.945 312.88C986.094 312.965 986.324 312.949 986.633 312.832V313.776C986.43 313.947 986.19 314.059 985.913 314.112C985.636 314.176 985.364 314.16 985.097 314.064C984.83 313.968 984.606 313.781 984.425 313.504C984.244 313.216 984.153 312.816 984.153 312.304C984.153 311.835 984.126 311.461 984.073 311.184C984.02 310.896 983.886 310.683 983.673 310.544C983.46 310.395 983.129 310.304 982.681 310.272C982.233 310.229 981.614 310.229 980.825 310.272V314H979.193ZM980.825 309.088H982.441C982.964 309.088 983.396 309.067 983.737 309.024C984.078 308.971 984.329 308.853 984.489 308.672C984.66 308.48 984.745 308.176 984.745 307.76C984.745 307.301 984.644 306.971 984.441 306.768C984.238 306.565 983.94 306.443 983.545 306.4C983.161 306.347 982.686 306.32 982.121 306.32H980.825V309.088Z"/><path fill="#FF3E1E" d="M1157.12 309.488C1157.12 310.672 1156.89 311.595 1156.42 312.256C1155.96 312.907 1155.31 313.36 1154.46 313.616C1153.62 313.872 1152.63 314 1151.49 314H1149.01V304.992H1151.49C1152.63 304.992 1153.62 305.163 1154.46 305.504C1155.31 305.835 1155.96 306.331 1156.42 306.992C1156.89 307.653 1157.12 308.485 1157.12 309.488ZM1150.62 312.656H1151.95C1152.66 312.656 1153.26 312.576 1153.78 312.416C1154.29 312.245 1154.68 311.931 1154.96 311.472C1155.24 311.013 1155.38 310.347 1155.38 309.472C1155.38 308.437 1155.07 307.669 1154.45 307.168C1153.84 306.656 1153.01 306.4 1151.95 306.4H1150.62V312.656ZM1160.17 312.688H1165.14V314H1158.55V304.992H1164.98V306.4H1160.17V308.768H1163.86V310.112H1160.17V312.688ZM1170.53 314.16C1169.69 314.16 1168.93 313.989 1168.25 313.648C1167.56 313.296 1167.02 312.779 1166.61 312.096C1166.22 311.413 1166.02 310.56 1166.02 309.536C1166.03 308.533 1166.24 307.68 1166.63 306.976C1167.03 306.272 1167.56 305.739 1168.25 305.376C1168.93 305.013 1169.71 304.832 1170.58 304.832C1171.41 304.832 1172.12 304.981 1172.71 305.28C1173.3 305.579 1173.77 305.984 1174.12 306.496C1174.48 307.008 1174.72 307.584 1174.82 308.224H1173.14C1173.07 307.755 1172.89 307.387 1172.61 307.12C1172.35 306.843 1172.03 306.651 1171.67 306.544C1171.31 306.427 1170.95 306.368 1170.58 306.368C1169.63 306.368 1168.9 306.635 1168.39 307.168C1167.89 307.701 1167.64 308.453 1167.64 309.424C1167.64 310.459 1167.88 311.253 1168.37 311.808C1168.88 312.363 1169.6 312.64 1170.55 312.64C1170.95 312.64 1171.33 312.581 1171.7 312.464C1172.08 312.336 1172.4 312.133 1172.66 311.856C1172.93 311.568 1173.1 311.184 1173.17 310.704H1174.87C1174.75 311.365 1174.51 311.957 1174.15 312.48C1173.8 312.992 1173.32 313.403 1172.71 313.712C1172.11 314.011 1171.39 314.16 1170.53 314.16ZM1177.81 312.688H1182.78V314H1176.19V304.992H1182.62V306.4H1177.81V308.768H1181.5V310.112H1177.81V312.688ZM1184.29 314V304.992H1187.14L1189.25 313.296H1189.28L1191.38 304.992H1194.21V314H1192.51L1192.62 305.728H1192.61L1190.45 314H1188.05L1185.92 305.728H1185.89L1185.98 314H1184.29ZM1195.99 314V304.992H1199.56C1199.89 304.992 1200.25 305.013 1200.65 305.056C1201.05 305.099 1201.44 305.195 1201.81 305.344C1202.19 305.493 1202.49 305.728 1202.73 306.048C1202.97 306.368 1203.09 306.811 1203.09 307.376C1203.09 307.717 1203.02 308.032 1202.89 308.32C1202.76 308.608 1202.51 308.848 1202.15 309.04C1201.8 309.221 1201.29 309.328 1200.63 309.36V309.408C1201.4 309.429 1201.99 309.541 1202.41 309.744C1202.82 309.936 1203.11 310.192 1203.27 310.512C1203.43 310.832 1203.51 311.189 1203.51 311.584C1203.51 312.16 1203.38 312.613 1203.13 312.944C1202.87 313.264 1202.54 313.504 1202.13 313.664C1201.73 313.813 1201.3 313.909 1200.85 313.952C1200.42 313.984 1200.01 314 1199.64 314H1195.99ZM1197.59 308.736H1199.37C1199.74 308.736 1200.09 308.715 1200.41 308.672C1200.74 308.629 1201 308.528 1201.19 308.368C1201.38 308.197 1201.48 307.925 1201.48 307.552C1201.48 307.157 1201.38 306.875 1201.17 306.704C1200.98 306.533 1200.73 306.427 1200.41 306.384C1200.09 306.341 1199.74 306.32 1199.37 306.32H1197.59V308.736ZM1197.61 312.688H1199.51C1199.93 312.688 1200.31 312.661 1200.66 312.608C1201.01 312.555 1201.3 312.437 1201.51 312.256C1201.72 312.064 1201.83 311.765 1201.83 311.36C1201.83 310.944 1201.72 310.64 1201.49 310.448C1201.27 310.245 1200.98 310.117 1200.61 310.064C1200.25 310.011 1199.85 309.984 1199.41 309.984H1197.61V312.688ZM1206.53 312.688H1211.5V314H1204.91V304.992H1211.34V306.4H1206.53V308.768H1210.22V310.112H1206.53V312.688ZM1212.97 314V304.992H1216.29C1217.45 304.992 1218.36 305.189 1219.01 305.584C1219.66 305.968 1219.98 306.651 1219.98 307.632C1219.98 308.368 1219.81 308.965 1219.45 309.424C1219.1 309.872 1218.6 310.096 1217.93 310.096C1218.31 310.096 1218.58 310.181 1218.77 310.352C1218.96 310.512 1219.09 310.715 1219.17 310.96C1219.24 311.205 1219.29 311.461 1219.33 311.728C1219.36 311.995 1219.4 312.235 1219.44 312.448C1219.49 312.651 1219.59 312.795 1219.73 312.88C1219.88 312.965 1220.1 312.949 1220.41 312.832V313.776C1220.21 313.947 1219.97 314.059 1219.69 314.112C1219.42 314.176 1219.14 314.16 1218.88 314.064C1218.61 313.968 1218.39 313.781 1218.21 313.504C1218.02 313.216 1217.93 312.816 1217.93 312.304C1217.93 311.835 1217.91 311.461 1217.85 311.184C1217.8 310.896 1217.67 310.683 1217.45 310.544C1217.24 310.395 1216.91 310.304 1216.46 310.272C1216.01 310.229 1215.4 310.229 1214.61 310.272V314H1212.97ZM1214.61 309.088H1216.22C1216.74 309.088 1217.18 309.067 1217.52 309.024C1217.86 308.971 1218.11 308.853 1218.27 308.672C1218.44 308.48 1218.53 308.176 1218.53 307.76C1218.53 307.301 1218.42 306.971 1218.22 306.768C1218.02 306.565 1217.72 306.443 1217.33 306.4C1216.94 306.347 1216.47 306.32 1215.9 306.32H1214.61V309.088Z"/><rect width="2" height="5" x="57" y="281" fill="#FF3E1E"/><rect width="2" height="5" x="264" y="281" fill="#FF3E1E"/><rect width="2" height="5" x="491" y="281" fill="#FF3E1E"/><rect width="2" height="5" x="729" y="281" fill="#FF3E1E"/><rect width="2" height="5" x="959" y="281" fill="#FF3E1E"/><rect width="2" height="5" x="1189" y="281" fill="#FF3E1E"/><defs><linearGradient id="paint0_linear_171_208" x1="1264" x2="0" y1="284" y2="284" gradientUnits="userSpaceOnUse"><stop stop-color="#FF3E1E" stop-opacity=".04"/><stop offset=".214" stop-color="#FF3E1E"/><stop offset=".521" stop-color="#FF3E1E"/><stop offset=".828" stop-color="#FF3E1E"/><stop offset="1" stop-color="#FF3E1E" stop-opacity=".07"/></linearGradient></defs></svg>