<svg xmlns="http://www.w3.org/2000/svg" width="1440" height="1024" fill="none" viewBox="0 0 1440 1024"><g clip-path="url(#clip0_180_257)"><g filter="url(#filter0_f_180_257)"><path fill="url(#paint0_angular_180_257)" fill-opacity=".3" d="M811.914 501.115C998.364 513.614 528.19 392.625 534.578 378.104C79.1141 234.836 879.186 406.634 968.577 345.177C1080.31 268.355 1173.56 456.291 1045.23 536.784C916.895 617.276 889.28 580.533 998.943 679.219C1108.61 777.905 886.296 801.374 861.184 685.386C836.073 569.398 566.129 728.697 396.94 672.749C227.751 616.801 625.464 488.616 811.914 501.115Z"/><path stroke="#D9D9D9" stroke-width="3" d="M811.914 501.115C998.364 513.614 528.19 392.625 534.578 378.104C79.1141 234.836 879.186 406.634 968.577 345.177C1080.31 268.355 1173.56 456.291 1045.23 536.784C916.895 617.276 889.28 580.533 998.943 679.219C1108.61 777.905 886.296 801.374 861.184 685.386C836.073 569.398 566.129 728.697 396.94 672.749C227.751 616.801 625.464 488.616 811.914 501.115Z"/></g><rect width="25.329" height="33.772" x="654.16" y="319.973" fill="url(#paint1_linear_180_257)" rx="3"/><rect width="24.329" height="32.772" x="654.66" y="320.473" stroke="#6A6A6A" stroke-opacity=".44" rx="2.5"/><rect width="25.329" height="33.772" x="697.581" y="319.973" fill="url(#paint2_linear_180_257)" rx="3"/><rect width="24.329" height="32.772" x="698.081" y="320.473" stroke="#6A6A6A" stroke-opacity=".44" rx="2.5"/><path stroke="#D9D9D9" stroke-width="3" d="M667.427 320.575V239.161M710.848 320.575V275.345"/><circle cx="709.642" cy="264.49" r="11.768" stroke="#D9D9D9" stroke-width="3"/><rect width="25.329" height="33.772" x="610.74" y="319.973" fill="url(#paint3_linear_180_257)" rx="3"/><rect width="24.329" height="32.772" x="611.24" y="320.473" stroke="#6A6A6A" stroke-opacity=".44" rx="2.5"/><path stroke="#D9D9D9" stroke-width="3" d="M622.801 319.973V284.995H551.036"/><circle cx="538.371" cy="284.995" r="11.268" stroke="#D9D9D9" stroke-width="4"/><rect width="25.329" height="33.772" fill="url(#paint4_linear_180_257)" rx="3" transform="matrix(-1 0 0 1 835.08 319.973)"/><rect width="24.329" height="32.772" x="-.5" y=".5" stroke="#6A6A6A" stroke-opacity=".44" rx="2.5" transform="matrix(-1 0 0 1 834.08 319.973)"/><rect width="25.329" height="33.772" fill="url(#paint5_linear_180_257)" rx="3" transform="matrix(-1 0 0 1 791.66 319.973)"/><rect width="24.329" height="32.772" x="-.5" y=".5" stroke="#6A6A6A" stroke-opacity=".44" rx="2.5" transform="matrix(-1 0 0 1 790.66 319.973)"/><path stroke="#D9D9D9" stroke-width="3" d="M821.813 320.575V239.161M778.393 320.575V275.345"/><circle cx="13.268" cy="13.268" r="11.768" stroke="#D9D9D9" stroke-width="3" transform="matrix(-1 0 0 1 792.866 251.223)"/><rect width="25.329" height="33.772" fill="url(#paint6_linear_180_257)" rx="3" transform="matrix(-1 0 0 1 878.5 319.975)"/><rect width="24.329" height="32.772" x="-.5" y=".5" stroke="#6A6A6A" stroke-opacity=".44" rx="2.5" transform="matrix(-1 0 0 1 877.5 319.975)"/><path stroke="#D9D9D9" stroke-width="3" d="M866.439 319.975V284.997H938.204"/><circle cx="13.268" cy="13.268" r="11.268" stroke="#D9D9D9" stroke-width="4" transform="matrix(-1 0 0 1 964.136 271.73)"/><rect width="23.38" height="31.174" fill="url(#paint7_linear_180_257)" rx="3" transform="matrix(1 0 0 -1 657.5 781.735)"/><rect width="22.38" height="30.174" x=".5" y="-.5" stroke="#6A6A6A" stroke-opacity=".44" rx="2.5" transform="matrix(1 0 0 -1 657.5 780.735)"/><rect width="23.38" height="31.174" fill="url(#paint8_linear_180_257)" rx="3" transform="matrix(1 0 0 -1 697.581 781.735)"/><rect width="22.38" height="30.174" x=".5" y="-.5" stroke="#6A6A6A" stroke-opacity=".44" rx="2.5" transform="matrix(1 0 0 -1 697.581 780.735)"/><path stroke="#D9D9D9" stroke-width="3" d="M669.748 781.18V856.331M709.829 781.18V822.93"/><circle cx="12.247" cy="12.247" r="10.747" stroke="#D9D9D9" stroke-width="3" transform="matrix(1 0 0 -1 696.468 845.198)"/><rect width="23.38" height="31.174" fill="url(#paint9_linear_180_257)" rx="3" transform="matrix(1 0 0 -1 617.419 781.734)"/><rect width="22.38" height="30.174" x=".5" y="-.5" stroke="#6A6A6A" stroke-opacity=".44" rx="2.5" transform="matrix(1 0 0 -1 617.419 780.734)"/><path stroke="#D9D9D9" stroke-width="3" d="M628.553 781.736V814.023H562.309"/><circle cx="12.247" cy="12.247" r="10.247" stroke="#D9D9D9" stroke-width="4" transform="matrix(1 0 0 -1 538.372 826.27)"/><rect width="23.38" height="31.174" x="837.771" y="781.92" fill="url(#paint10_linear_180_257)" rx="3" transform="rotate(180 837.771 781.92)"/><rect width="22.38" height="30.174" x="837.271" y="781.42" stroke="#6A6A6A" stroke-opacity=".44" rx="2.5" transform="rotate(180 837.271 781.42)"/><rect width="23.38" height="31.174" x="797.69" y="781.92" fill="url(#paint11_linear_180_257)" rx="3" transform="rotate(180 797.69 781.92)"/><rect width="22.38" height="30.174" x="797.19" y="781.42" stroke="#6A6A6A" stroke-opacity=".44" rx="2.5" transform="rotate(180 797.19 781.42)"/><path stroke="#D9D9D9" stroke-width="3" d="M825.524 781.364V856.516M785.444 781.364V823.115"/><circle cx="786.557" cy="833.136" r="10.747" stroke="#D9D9D9" stroke-width="3" transform="rotate(180 786.557 833.136)"/><rect width="23.38" height="31.174" x="877.852" y="781.918" fill="url(#paint12_linear_180_257)" rx="3" transform="rotate(180 877.852 781.918)"/><rect width="22.38" height="30.174" x="877.352" y="781.418" stroke="#6A6A6A" stroke-opacity=".44" rx="2.5" transform="rotate(180 877.352 781.418)"/><path stroke="#D9D9D9" stroke-width="3" d="M866.718 781.917V814.204H932.962"/><circle cx="944.653" cy="814.204" r="10.247" stroke="#D9D9D9" stroke-width="4" transform="rotate(180 944.653 814.204)"/><g filter="url(#filter1_dii_180_257)"><rect width="409" height="409" x="540" y="344" fill="#272727" rx="32"/></g><circle cx="538" cy="285" r="6" fill="#FF3E1E"/><circle cx="780" cy="264" r="6" fill="#FF3E1E"/><circle cx="951" cy="285" r="6" fill="#FF3E1E"/><circle cx="708.5" cy="832.5" r="5.5" fill="#FF3E1E"/><ellipse cx="787" cy="832.5" fill="#FF3E1E" rx="6" ry="5.5"/></g><defs><filter id="filter0_f_180_257" width="1336.29" height="1028.83" x="63.479" y="26.861" color-interpolation-filters="sRGB" filterUnits="userSpaceOnUse"><feFlood flood-opacity="0" result="BackgroundImageFix"/><feBlend in="SourceGraphic" in2="BackgroundImageFix" mode="normal" result="shape"/><feGaussianBlur result="effect1_foregroundBlur_180_257" stdDeviation="145.5"/></filter><filter id="filter1_dii_180_257" width="455" height="455" x="517" y="321" color-interpolation-filters="sRGB" filterUnits="userSpaceOnUse"><feFlood flood-opacity="0" result="BackgroundImageFix"/><feColorMatrix in="SourceAlpha" result="hardAlpha" type="matrix" values="0 0 0 0 0 0 0 0 0 0 0 0 0 0 0 0 0 0 127 0"/><feOffset/><feGaussianBlur stdDeviation="11.5"/><feComposite in2="hardAlpha" operator="out"/><feColorMatrix type="matrix" values="0 0 0 0 0 0 0 0 0 0 0 0 0 0 0 0 0 0 0.25 0"/><feBlend in2="BackgroundImageFix" mode="normal" result="effect1_dropShadow_180_257"/><feBlend in="SourceGraphic" in2="effect1_dropShadow_180_257" mode="normal" result="shape"/><feColorMatrix in="SourceAlpha" result="hardAlpha" type="matrix" values="0 0 0 0 0 0 0 0 0 0 0 0 0 0 0 0 0 0 127 0"/><feMorphology in="SourceAlpha" operator="erode" radius="3" result="effect2_innerShadow_180_257"/><feOffset dy="11"/><feGaussianBlur stdDeviation="4"/><feComposite in2="hardAlpha" k2="-1" k3="1" operator="arithmetic"/><feColorMatrix type="matrix" values="0 0 0 0 0 0 0 0 0 0 0 0 0 0 0 0 0 0 0.25 0"/><feBlend in2="shape" mode="normal" result="effect2_innerShadow_180_257"/><feColorMatrix in="SourceAlpha" result="hardAlpha" type="matrix" values="0 0 0 0 0 0 0 0 0 0 0 0 0 0 0 0 0 0 127 0"/><feOffset dy="-3"/><feGaussianBlur stdDeviation="2"/><feComposite in2="hardAlpha" k2="-1" k3="1" operator="arithmetic"/><feColorMatrix type="matrix" values="0 0 0 0 1 0 0 0 0 1 0 0 0 0 1 0 0 0 0.25 0"/><feBlend in2="effect2_innerShadow_180_257" mode="normal" result="effect3_innerShadow_180_257"/></filter><radialGradient id="paint0_angular_180_257" cx="0" cy="0" r="1" gradientTransform="translate(860.59 511.441) rotate(-165) scale(219.818 218.948)" gradientUnits="userSpaceOnUse"><stop stop-color="#FF3E1E"/><stop offset=".516" stop-color="#0F5DF8"/><stop offset="1" stop-color="#9104FF"/></radialGradient><linearGradient id="paint1_linear_180_257" x1="666.824" x2="666.824" y1="319.973" y2="353.744" gradientUnits="userSpaceOnUse"><stop stop-color="#F98"/><stop offset="1" stop-color="#FF3E1E"/></linearGradient><linearGradient id="paint2_linear_180_257" x1="710.245" x2="710.245" y1="319.973" y2="353.744" gradientUnits="userSpaceOnUse"><stop stop-color="#F98"/><stop offset="1" stop-color="#FF3E1E"/></linearGradient><linearGradient id="paint3_linear_180_257" x1="623.404" x2="623.404" y1="319.973" y2="353.744" gradientUnits="userSpaceOnUse"><stop stop-color="#F98"/><stop offset="1" stop-color="#FF3E1E"/></linearGradient><linearGradient id="paint4_linear_180_257" x1="12.664" x2="12.664" y1="0" y2="33.772" gradientUnits="userSpaceOnUse"><stop stop-color="#F98"/><stop offset="1" stop-color="#FF3E1E"/></linearGradient><linearGradient id="paint5_linear_180_257" x1="12.664" x2="12.664" y1="0" y2="33.772" gradientUnits="userSpaceOnUse"><stop stop-color="#F98"/><stop offset="1" stop-color="#FF3E1E"/></linearGradient><linearGradient id="paint6_linear_180_257" x1="12.664" x2="12.664" y1="0" y2="33.772" gradientUnits="userSpaceOnUse"><stop stop-color="#F98"/><stop offset="1" stop-color="#FF3E1E"/></linearGradient><linearGradient id="paint7_linear_180_257" x1="11.69" x2="11.69" y1="0" y2="31.174" gradientUnits="userSpaceOnUse"><stop stop-color="#F98"/><stop offset="1" stop-color="#FF3E1E"/></linearGradient><linearGradient id="paint8_linear_180_257" x1="11.69" x2="11.69" y1="0" y2="31.174" gradientUnits="userSpaceOnUse"><stop stop-color="#F98"/><stop offset="1" stop-color="#FF3E1E"/></linearGradient><linearGradient id="paint9_linear_180_257" x1="11.69" x2="11.69" y1="0" y2="31.174" gradientUnits="userSpaceOnUse"><stop stop-color="#F98"/><stop offset="1" stop-color="#FF3E1E"/></linearGradient><linearGradient id="paint10_linear_180_257" x1="849.461" x2="849.461" y1="781.92" y2="813.094" gradientUnits="userSpaceOnUse"><stop stop-color="#F98"/><stop offset="1" stop-color="#FF3E1E"/></linearGradient><linearGradient id="paint11_linear_180_257" x1="809.381" x2="809.381" y1="781.92" y2="813.094" gradientUnits="userSpaceOnUse"><stop stop-color="#F98"/><stop offset="1" stop-color="#FF3E1E"/></linearGradient><linearGradient id="paint12_linear_180_257" x1="889.542" x2="889.542" y1="781.918" y2="813.092" gradientUnits="userSpaceOnUse"><stop stop-color="#F98"/><stop offset="1" stop-color="#FF3E1E"/></linearGradient><clipPath id="clip0_180_257"><rect width="1440" height="1024" fill="#fff"/></clipPath></defs></svg>