<svg xmlns="http://www.w3.org/2000/svg" width="1020" height="395" fill="none" viewBox="0 0 1020 395"><g clip-path="url(#clip0_219_349)"><path stroke="#000" stroke-opacity=".03" d="M118.5 136.5V109L142 96L164.5 109V136.5L142 150L118.5 136.5Z"/><path stroke="#000" stroke-opacity=".03" d="M142 178V150.5L164.5 137L188 150.5V178L165 191L142 178Z"/><path stroke="#000" stroke-opacity=".03" d="M96 341V313.5L118.5 300L142 313.5V341L119 354L96 341Z"/><path stroke="#000" stroke-opacity=".03" d="M119 300V272.5L141.5 259L165 272.5V300L142 313L119 300Z"/><path stroke="#000" stroke-opacity=".03" d="M142 341V313.5L164.5 300L188 313.5V341L165 354L142 341Z"/><path stroke="#000" stroke-opacity=".03" d="M165 382V354.5L187.5 341L211 354.5V382L188 395L165 382Z"/><path stroke="#000" stroke-opacity=".03" d="M50 341V313.5L72.5 300L96 313.5V341L73 354L50 341Z"/><path stroke="#000" stroke-opacity=".03" d="M27 300V272.5L49.5 259L73 272.5V300L50 313L27 300Z"/><path stroke="#000" stroke-opacity=".03" d="M-19 300V272.5L3.5 259L27 272.5V300L4 313L-19 300Z"/><path stroke="#000" stroke-opacity=".03" d="M73 382V354.5L95.5 341L119 354.5V382L96 395L73 382Z"/><path stroke="#000" stroke-opacity=".03" d="M73 55.5V28L96.5 15L119 28V54L96 68.5L73 55.5Z"/><path stroke="#000" stroke-opacity=".03" d="M119 54V28L142.5 15L165 28V54L142 68.5L119 54Z"/><path stroke="#000" stroke-opacity=".03" d="M50 96.5V69L73 55.5L96 68.5V95.7827L73 109.5L50 96.5Z"/><path stroke="#000" stroke-opacity=".03" d="M4 97V69.5L27 56L50 69V96.2827L27 110L4 97Z"/><path stroke="#000" stroke-opacity=".03" d="M-19 138V110.5L4 97L27 110V137.283L4 151L-19 138Z"/><path stroke="#000" stroke-opacity=".03" d="M96 96V68.5L119 54L142 68.5V96L119 109L96 96Z"/><path stroke="#000" stroke-opacity=".03" d="M907.118 276.328L930.934 290.078L930.442 316.93L907.934 329.915L884.118 316.165L883.677 289.93L907.118 276.328Z"/><path stroke="#000" stroke-opacity=".03" d="M859.427 275.93L883.243 289.68L883.684 315.915L860.243 329.517L836.427 315.767L836.669 289.348L859.427 275.93Z"/><path stroke="#000" stroke-opacity=".03" d="M741.265 154.593L765.081 168.343L765.522 194.578L742.081 208.18L718.265 194.43L718.507 168.011L741.265 154.593Z"/><path stroke="#000" stroke-opacity=".03" d="M765.272 195.012L789.087 208.762L789.529 234.997L766.087 248.599L742.272 234.849L742.513 208.43L765.272 195.012Z"/><path stroke="#000" stroke-opacity=".03" d="M718.265 194.43L742.081 208.18L742.522 234.415L719.081 248.017L695.265 234.267L695.507 207.848L718.265 194.43Z"/><path stroke="#000" stroke-opacity=".03" d="M671.258 193.849L695.074 207.599L695.515 233.834L672.074 247.436L648.258 233.686L648.5 207.267L671.258 193.849Z"/><path stroke="#000" stroke-opacity=".03" d="M764.265 114.756L788.081 128.506L788.522 154.741L765.081 168.343L741.265 154.593L741.507 128.174L764.265 114.756Z"/><path stroke="#000" stroke-opacity=".03" d="M811.272 115.337L835.087 129.087L835.529 155.322L812.087 168.924L788.272 155.174L788.513 128.755L811.272 115.337Z"/><path stroke="#000" stroke-opacity=".03" d="M834.273 75.5L858.088 89.25L858.53 115.486L835.088 129.087L811.273 115.337L811.514 88.9186L834.273 75.5Z"/><path stroke="#000" stroke-opacity=".03" d="M717.258 114.175L741.074 127.925L741.515 154.16L718.074 167.762L694.258 154.012L694.5 127.593L717.258 114.175Z"/><path stroke="#000" stroke-opacity=".03" d="M234.265 179.593L258.081 193.343L258.522 219.578L235.081 233.18L211.265 219.43L211.507 193.011L234.265 179.593Z"/><path stroke="#000" stroke-opacity=".03" d="M258.272 220.012L282.087 233.762L282.529 259.997L259.087 273.599L235.272 259.849L235.513 233.43L258.272 220.012Z"/><path stroke="#000" stroke-opacity=".03" d="M211.265 219.43L235.081 233.18L235.522 259.415L212.081 273.017L188.265 259.267L188.507 232.848L211.265 219.43Z"/><path stroke="#000" stroke-opacity=".03" d="M164.258 218.849L188.074 232.599L188.515 258.834L165.074 272.436L141.258 258.686L141.5 232.267L164.258 218.849Z"/><path stroke="#000" stroke-opacity=".03" d="M257.265 139.756L281.081 153.506L281.522 179.741L258.081 193.343L234.265 179.593L234.507 153.174L257.265 139.756Z"/><path stroke="#000" stroke-opacity=".03" d="M304.272 140.337L328.087 154.087L328.529 180.322L305.087 193.924L281.272 180.174L281.513 153.755L304.272 140.337Z"/><path stroke="#000" stroke-opacity=".03" d="M327.273 100.5L351.088 114.25L351.53 140.486L328.088 154.087L304.273 140.337L304.514 113.919L327.273 100.5Z"/><path stroke="#000" stroke-opacity=".03" d="M210.258 139.175L234.074 152.925L234.515 179.16L211.074 192.762L188 178L188 150.5L210.258 139.175Z"/><path stroke="#000" stroke-opacity=".03" d="M1000.02 277.425L1023.83 291.175L1023.34 318.026L1000.83 331.012L978.314 318.012L977.257 290.843L1000.02 277.425Z"/><path stroke="#000" stroke-opacity=".03" d="M978.314 318.012L1000.83 331.012L1000.34 357.863L977.831 370.849L955.314 357.849L954.257 330.68L978.314 318.012Z"/><path fill="url(#paint0_linear_219_349)" fill-opacity=".5" d="M975.333 371C975.333 372.473 976.527 373.667 978 373.667C979.473 373.667 980.667 372.473 980.667 371C980.667 369.528 979.473 368.334 978 368.334C976.527 368.334 975.333 369.528 975.333 371ZM955 358L954.5 358.009L954.505 358.295L954.754 358.436L955 358ZM954.5 330.5L954.265 330.059L953.995 330.203L954 330.509L954.5 330.5ZM978 318L978.235 318.442L978.511 318.295L978.5 317.982L978 318ZM977 290.5L976.747 290.069L976.489 290.22L976.5 290.518L977 290.5ZM1000 277L1000.25 277.431L1000.5 277.287V277H1000ZM1000 250.729H1000.5V250.439L1000.25 250.295L1000 250.729ZM976 237H975.5V237.29L975.752 237.434L976 237ZM976 210.189L975.747 209.758L975.5 209.903V210.189H976ZM995.833 197C995.833 198.473 997.027 199.667 998.5 199.667C999.973 199.667 1001.17 198.473 1001.17 197C1001.17 195.527 999.973 194.333 998.5 194.333C997.027 194.333 995.833 195.527 995.833 197ZM978.246 370.565L955.246 357.565L954.754 358.436L977.754 371.436L978.246 370.565ZM955.5 357.991L955 330.491L954 330.509L954.5 358.009L955.5 357.991ZM954.735 330.942L978.235 318.442L977.765 317.559L954.265 330.059L954.735 330.942ZM978.5 317.982L977.5 290.482L976.5 290.518L977.5 318.018L978.5 317.982ZM977.253 290.931L1000.25 277.431L999.747 276.569L976.747 290.069L977.253 290.931ZM1000.5 277V250.729H999.5V277H1000.5ZM1000.25 250.295L976.248 236.566L975.752 237.434L999.752 251.163L1000.25 250.295ZM976.5 237V210.189H975.5V237H976.5ZM976.253 210.621L998.753 197.431L998.247 196.569L975.747 209.758L976.253 210.621Z"/><path stroke="#000" stroke-opacity=".03" d="M976.008 237.006L999.824 250.756L1000.02 277.424L977.257 290.843L953.629 277.202L953.25 250.424L976.008 237.006Z"/><path stroke="#000" stroke-opacity=".03" d="M998.575 196.919L1022.39 210.669L1022.58 237.338L999.824 250.756L976.197 237.115L975.817 210.338L998.575 196.919Z"/><path stroke="#000" stroke-opacity=".03" d="M974.568 156.5L998.383 170.25L998.575 196.919L975.816 210.337L952.189 196.696L951.809 169.919L974.568 156.5Z"/><path stroke="#000" stroke-opacity=".03" d="M953.441 277.093L977.257 290.843L978.314 318.011L954.257 330.68L930.441 316.93L930.683 290.511L953.441 277.093Z"/><path fill="url(#paint1_linear_219_349)" fill-opacity=".5" d="M211.5 193L211.231 193.421L211.489 193.586L211.753 193.431L211.5 193ZM234.5 179.5L234.753 179.931L235 179.786V179.5H234.5ZM234.5 153L234.247 152.569L234 152.714V153H234.5ZM254.833 139.5C254.833 140.973 256.027 142.167 257.5 142.167C258.973 142.167 260.167 140.973 260.167 139.5C260.167 138.027 258.973 136.833 257.5 136.833C256.027 136.833 254.833 138.027 254.833 139.5ZM187.731 178.421L211.231 193.421L211.769 192.579L188.269 177.579L187.731 178.421ZM211.753 193.431L234.753 179.931L234.247 179.069L211.247 192.569L211.753 193.431ZM235 179.5V153H234V179.5H235ZM234.753 153.431L257.753 139.931L257.247 139.069L234.247 152.569L234.753 153.431Z"/><path fill="url(#paint2_linear_219_349)" fill-opacity=".5" d="M27 110L26.7428 109.571L26.5 109.717V110H27ZM49.5 96.5L49.7491 96.0664L49.4945 95.9202L49.2428 96.0713L49.5 96.5ZM73 110L72.7509 110.434L73.0055 110.58L73.2572 110.429L73 110ZM95.5 96.5L95.7313 96.0567L95.4829 95.9271L95.2428 96.0713L95.5 96.5ZM121.059 109.835L119.835 105.941L115.941 107.165L117.165 111.059L121.059 109.835ZM27.5 137.5V110H26.5V137.5H27.5ZM27.2572 110.429L49.7572 96.9287L49.2428 96.0713L26.7428 109.571L27.2572 110.429ZM49.2509 96.9336L72.7509 110.434L73.2491 109.566L49.7491 96.0664L49.2509 96.9336ZM73.2572 110.429L95.7572 96.9287L95.2428 96.0713L72.7428 109.571L73.2572 110.429ZM95.2687 96.9433L118.269 108.943L118.731 108.057L95.7313 96.0567L95.2687 96.9433Z"/><path fill="url(#paint3_linear_219_349)" fill-opacity=".5" d="M718 194.5L718.248 194.066L717.999 193.923L717.75 194.067L718 194.5ZM742.5 208.5L742.252 208.934L742.508 209.08L742.76 208.927L742.5 208.5ZM765.5 194.5L765.76 194.927L766.005 194.778L766 194.491L765.5 194.5ZM765 168L764.758 167.562L764.494 167.708L764.5 168.009L765 168ZM788.5 155L788.756 154.57L788.509 154.423L788.258 154.562L788.5 155ZM812 169L811.744 169.43L811.995 169.579L812.249 169.434L812 169ZM835.5 155.5L835.749 155.934L836 155.789V155.5H835.5ZM835.5 129H836V128.711L835.749 128.566L835.5 129ZM812 115.5L812.249 115.066L812.005 114.926L811.758 115.062L812 115.5ZM785.833 128.5C785.833 129.973 787.027 131.167 788.5 131.167C789.973 131.167 791.167 129.973 791.167 128.5C791.167 127.027 789.973 125.833 788.5 125.833C787.027 125.833 785.833 127.027 785.833 128.5ZM695.75 207.933L718.25 194.933L717.75 194.067L695.25 207.067L695.75 207.933ZM717.752 194.934L742.252 208.934L742.748 208.066L718.248 194.066L717.752 194.934ZM742.76 208.927L765.76 194.927L765.24 194.073L742.24 208.073L742.76 208.927ZM766 194.491L765.5 167.991L764.5 168.009L765 194.509L766 194.491ZM765.242 168.438L788.742 155.438L788.258 154.562L764.758 167.562L765.242 168.438ZM788.244 155.43L811.744 169.43L812.256 168.57L788.756 154.57L788.244 155.43ZM812.249 169.434L835.749 155.934L835.251 155.066L811.751 168.566L812.249 169.434ZM836 155.5V129H835V155.5H836ZM835.749 128.566L812.249 115.066L811.751 115.934L835.251 129.434L835.749 128.566ZM811.758 115.062L788.258 128.062L788.742 128.938L812.242 115.938L811.758 115.062Z"/></g><defs><linearGradient id="paint0_linear_219_349" x1="996.399" x2="935.438" y1="185.617" y2="194.149" gradientUnits="userSpaceOnUse"><stop stop-color="#FF3E1E"/><stop offset=".714" stop-color="#0F5DF8"/><stop offset=".99" stop-color="#0F5DF8" stop-opacity="0"/></linearGradient><linearGradient id="paint1_linear_219_349" x1="252" x2="188" y1="136" y2="180.5" gradientUnits="userSpaceOnUse"><stop stop-color="#FF3E1E"/><stop offset=".714" stop-color="#0F5DF8"/><stop offset=".99" stop-color="#0F5DF8" stop-opacity="0"/></linearGradient><linearGradient id="paint2_linear_219_349" x1="111.259" x2="59.754" y1="93.818" y2="155.341" gradientUnits="userSpaceOnUse"><stop stop-color="#FF3E1E"/><stop offset=".714" stop-color="#0F5DF8"/><stop offset=".99" stop-color="#0F5DF8" stop-opacity="0"/></linearGradient><linearGradient id="paint3_linear_219_349" x1="824.421" x2="708.457" y1="109.416" y2="202.852" gradientUnits="userSpaceOnUse"><stop stop-color="#FF3E1E"/><stop offset=".714" stop-color="#0F5DF8"/><stop offset=".99" stop-color="#0F5DF8" stop-opacity="0"/></linearGradient><clipPath id="clip0_219_349"><rect width="1020" height="395" fill="#fff"/></clipPath></defs></svg>